<svg width="107" height="72" viewBox="0 0 107 72" fill="none" xmlns="http://www.w3.org/2000/svg">
<mask id="path-1-inside-1_4_58" fill="white">
<path d="M0 0H99C103.418 0 107 3.58172 107 8V64C107 68.4183 103.418 72 99 72H0V0Z"/>
</mask>
<path d="M0 0H99C103.418 0 107 3.58172 107 8V64C107 68.4183 103.418 72 99 72H0V0Z" fill="white"/>
<path d="M53.2234 40.9055V22L43.1367 37.5512L53.2234 40.9055Z" fill="#1C1C1C"/>
<path d="M55.0527 42.6562V49.9966L65.2769 39.2561L55.0527 42.6562Z" fill="#1C1C1C"/>
<path d="M55.0527 22V40.9055L65.1394 37.5512L55.0527 22Z" fill="#1C1C1C"/>
<path d="M53.2239 42.6562L43 39.2561L53.2239 49.9966V42.6562Z" fill="#1C1C1C"/>
<path d="M0 -1H99C103.971 -1 108 3.02944 108 8H106C106 4.13401 102.866 1 99 1H0V-1ZM108 64C108 68.9706 103.971 73 99 73H0V71H99C102.866 71 106 67.866 106 64H108ZM0 72V0V72ZM99 -1C103.971 -1 108 3.02944 108 8V64C108 68.9706 103.971 73 99 73V71C102.866 71 106 67.866 106 64V8C106 4.13401 102.866 1 99 1V-1Z" fill="#001133" fill-opacity="0.15" mask="url(#path-1-inside-1_4_58)"/>
</svg>
