<svg width="107" height="72" viewBox="0 0 107 72" fill="none" xmlns="http://www.w3.org/2000/svg">
<mask id="path-1-inside-1_4_145" fill="white">
<path d="M0 0H99C103.418 0 107 3.58172 107 8V64C107 68.4183 103.418 72 99 72H0V0Z"/>
</mask>
<path d="M0 0H99C103.418 0 107 3.58172 107 8V64C107 68.4183 103.418 72 99 72H0V0Z" fill="white"/>
<path fill-rule="evenodd" clip-rule="evenodd" d="M41.3663 18.1719L34.0302 33.5815C34.0022 33.6389 33.9934 33.7036 34.0049 33.7663C34.0164 33.829 34.0477 33.8864 34.0942 33.93L53.9074 52.9159C53.9637 52.9699 54.0387 53 54.1166 53C54.1946 53 54.2696 52.9699 54.3258 52.9159L74.1391 33.9312C74.1855 33.8876 74.2168 33.8302 74.2283 33.7675C74.2399 33.7048 74.231 33.64 74.2031 33.5827L66.8669 18.1731C66.8432 18.1213 66.8052 18.0775 66.7572 18.0468C66.7093 18.0161 66.6536 17.9999 66.5967 18H41.639C41.5818 17.9993 41.5256 18.0152 41.4772 18.0457C41.4289 18.0762 41.3903 18.12 41.3663 18.1719Z" fill="#50AF95"/>
<path fill-rule="evenodd" clip-rule="evenodd" d="M56.6628 35.1639C56.5205 35.1746 55.7856 35.2184 54.1462 35.2184C52.8424 35.2184 51.9166 35.1793 51.5918 35.1639C46.5529 34.9422 42.7917 34.0651 42.7917 33.0149C42.7917 31.9646 46.5529 31.0887 51.5918 30.8634V34.2903C51.9213 34.314 52.8649 34.3697 54.1688 34.3697C55.7334 34.3697 56.517 34.3045 56.658 34.2915V30.8658C61.6863 31.0898 65.4391 31.967 65.4391 33.0149C65.4391 34.0627 61.6875 34.9399 56.658 35.1627L56.6628 35.1639ZM56.6628 30.5114V27.4449H63.6801V22.7686H44.5745V27.4449H51.5906V30.5102C45.8879 30.7722 41.5992 31.9018 41.5992 33.2555C41.5992 34.6092 45.8879 35.7376 51.5906 36.0008V45.8274H56.6616V35.9972C62.3513 35.7353 66.6328 34.6068 66.6328 33.2543C66.6328 31.9018 62.3548 30.7733 56.6616 30.5102L56.6628 30.5114Z" fill="white"/>
<path d="M0 -1H99C103.971 -1 108 3.02944 108 8H106C106 4.13401 102.866 1 99 1H0V-1ZM108 64C108 68.9706 103.971 73 99 73H0V71H99C102.866 71 106 67.866 106 64H108ZM0 72V0V72ZM99 -1C103.971 -1 108 3.02944 108 8V64C108 68.9706 103.971 73 99 73V71C102.866 71 106 67.866 106 64V8C106 4.13401 102.866 1 99 1V-1Z" fill="#001133" fill-opacity="0.15" mask="url(#path-1-inside-1_4_145)"/>
</svg>
