<svg width="107" height="72" viewBox="0 0 107 72" fill="none" xmlns="http://www.w3.org/2000/svg">
<mask id="path-1-inside-1_4_232" fill="white">
<path d="M0 0H99C103.418 0 107 3.58172 107 8V64C107 68.4183 103.418 72 99 72H0V0Z"/>
</mask>
<path d="M0 0H99C103.418 0 107 3.58172 107 8V64C107 68.4183 103.418 72 99 72H0V0Z" fill="white"/>
<path d="M46.7027 32.7073L53.5 25.91L60.3005 32.7102L64.2555 28.7552L53.5 18L42.748 28.752L46.7029 32.707M36 35.5L39.9551 31.5443L43.91 35.4992L39.9549 39.4543L36 35.5ZM46.7027 38.2931L53.5 45.09L60.3004 38.2899L64.2575 42.2428L64.2555 42.2449L53.5 53L42.7424 42.2424L46.7031 38.2927M63.09 35.5017L67.0451 31.5465L71 35.5014L67.045 39.4565L63.09 35.5017Z" fill="#F3BA2F"/>
<path d="M57.5112 35.4979H57.5129L53.5 31.4846L50.5338 34.45L50.193 34.7909L49.4902 35.4938L49.4846 35.4993L49.4902 35.505L53.5 39.5153L57.5132 35.5021L57.5152 35.4998L57.5115 35.4979" fill="#F3BA2F"/>
<path d="M0 -1H99C103.971 -1 108 3.02944 108 8H106C106 4.13401 102.866 1 99 1H0V-1ZM108 64C108 68.9706 103.971 73 99 73H0V71H99C102.866 71 106 67.866 106 64H108ZM0 72V0V72ZM99 -1C103.971 -1 108 3.02944 108 8V64C108 68.9706 103.971 73 99 73V71C102.866 71 106 67.866 106 64V8C106 4.13401 102.866 1 99 1V-1Z" fill="#001133" fill-opacity="0.15" mask="url(#path-1-inside-1_4_232)"/>
</svg>
