<svg width="107" height="72" viewBox="0 0 107 72" fill="none" xmlns="http://www.w3.org/2000/svg">
<mask id="path-1-inside-1_4_319" fill="white">
<path d="M0 0H99C103.418 0 107 3.58172 107 8V64C107 68.4183 103.418 72 99 72H0V0Z"/>
</mask>
<path d="M0 0H99C103.418 0 107 3.58172 107 8V64C107 68.4183 103.418 72 99 72H0V0Z" fill="white"/>
<path d="M71.4725 39.7333C69.1353 49.1084 59.6398 54.8139 50.2636 52.4761C40.8913 50.1388 35.1858 40.6428 37.5241 31.2685C39.8603 21.8923 49.3558 16.1864 58.7291 18.5237C68.1046 20.8609 73.8098 30.358 71.4722 39.7335L71.4724 39.7333H71.4725Z" fill="#F7931A"/>
<path d="M62.2148 33.0067C62.5631 30.6778 60.7901 29.426 58.3656 28.5908L59.1521 25.4362L57.2318 24.9577L56.4661 28.0293C55.9613 27.9034 55.4428 27.7847 54.9275 27.6671L55.6987 24.5752L53.7796 24.0967L52.9926 27.2504C52.5749 27.1553 52.1646 27.0612 51.7665 26.9622L51.7687 26.9523L49.1205 26.291L48.6097 28.342C48.6097 28.342 50.0344 28.6686 50.0044 28.6887C50.782 28.8828 50.9226 29.3976 50.8993 29.8056L50.0033 33.3995C50.0569 33.4131 50.1263 33.4327 50.203 33.4635C50.1389 33.4476 50.0707 33.4303 50 33.4133L48.7442 38.4479C48.6492 38.6841 48.408 39.0387 47.8643 38.904C47.8835 38.9319 46.4685 38.5557 46.4685 38.5557L45.5151 40.7539L48.0141 41.3769C48.479 41.4935 48.9346 41.6154 49.3833 41.7301L48.5886 44.921L50.5067 45.3995L51.2937 42.2425C51.8177 42.3848 52.3262 42.516 52.8241 42.6397L52.0398 45.7818L53.9602 46.2603L54.7547 43.0754C58.0293 43.6951 60.4915 43.4453 61.5279 40.4834C62.363 38.0988 61.4864 36.7233 59.7636 35.8264C61.0184 35.537 61.9635 34.7117 62.2155 33.0069L62.2149 33.0065L62.2148 33.0067ZM57.8273 39.1591C57.2338 41.5438 53.2188 40.2547 51.9171 39.9314L52.9716 35.7041C54.2732 36.0291 58.4475 36.6722 57.8274 39.1591H57.8273ZM58.4212 32.9721C57.8798 35.1412 54.5381 34.0392 53.454 33.769L54.4101 29.9351C55.4941 30.2053 58.9851 30.7096 58.4213 32.9721H58.4212Z" fill="white"/>
<path d="M0 -1H99C103.971 -1 108 3.02944 108 8H106C106 4.13401 102.866 1 99 1H0V-1ZM108 64C108 68.9706 103.971 73 99 73H0V71H99C102.866 71 106 67.866 106 64H108ZM0 72V0V72ZM99 -1C103.971 -1 108 3.02944 108 8V64C108 68.9706 103.971 73 99 73V71C102.866 71 106 67.866 106 64V8C106 4.13401 102.866 1 99 1V-1Z" fill="#001133" fill-opacity="0.15" mask="url(#path-1-inside-1_4_319)"/>
</svg>
