<svg width="33" height="28" viewBox="0 0 33 28" fill="none" xmlns="http://www.w3.org/2000/svg">
<path fill-rule="evenodd" clip-rule="evenodd" d="M5.89307 0.13752L0.0241285 12.4652C0.00179552 12.5111 -0.00528166 12.5629 0.00393193 12.613C0.0131455 12.6632 0.0381666 12.7091 0.075336 12.744L15.9259 27.9327C15.971 27.9759 16.0309 28 16.0933 28C16.1557 28 16.2157 27.9759 16.2607 27.9327L32.1113 12.745C32.1484 12.7101 32.1735 12.6642 32.1827 12.614C32.1919 12.5638 32.1848 12.512 32.1625 12.4662L26.2935 0.138468C26.2746 0.0970664 26.2441 0.0619939 26.2058 0.0374423C26.1675 0.0128907 26.1229 -0.00010156 26.0773 1.83516e-05H6.11117C6.06543 -0.000550774 6.02049 0.0121285 5.98179 0.0365266C5.94309 0.0609248 5.91228 0.0959995 5.89307 0.13752Z" fill="#50AF95"/>
<path fill-rule="evenodd" clip-rule="evenodd" d="M18.1302 13.7311C18.0165 13.7397 17.4285 13.7748 16.117 13.7748C15.0739 13.7748 14.3333 13.7435 14.0735 13.7311C10.0423 13.5538 7.03341 12.8521 7.03341 12.0119C7.03341 11.1717 10.0423 10.4709 14.0735 10.2908V13.0322C14.3371 13.0512 15.0919 13.0958 16.1351 13.0958C17.3868 13.0958 18.0136 13.0436 18.1265 13.0332V10.2926C22.1491 10.4719 25.1514 11.1736 25.1514 12.0119C25.1514 12.8502 22.15 13.5519 18.1265 13.7302L18.1302 13.7311ZM18.1302 10.0091V7.5559H23.7441V3.81491H8.45963V7.5559H14.0725V10.0082C9.51033 10.2177 6.07944 11.1215 6.07944 12.2044C6.07944 13.2873 9.51033 14.1901 14.0725 14.4006V22.2619H18.1293V14.3978C22.6811 14.1882 26.1063 13.2854 26.1063 12.2034C26.1063 11.1215 22.6839 10.2187 18.1293 10.0082L18.1302 10.0091Z" fill="white"/>
</svg>
