<svg width="28" height="28" viewBox="0 0 28 28" fill="none" xmlns="http://www.w3.org/2000/svg">
<path d="M8.56218 11.7658L14 6.328L19.4404 11.7682L22.6044 8.60418L14 0L5.3984 8.6016L8.56229 11.7656M0 14L3.16411 10.8354L6.328 13.9993L3.16389 17.1634L0 14ZM8.56218 16.2345L14 21.672L19.4403 16.2319L22.606 19.3943L22.6044 19.3959L14 28L5.39392 19.3939L8.56251 16.2342M21.672 14.0013L24.8361 10.8372L28 14.0011L24.836 17.1652L21.672 14.0013Z" fill="#F3BA2F"/>
<path d="M17.209 13.9983H17.2104L14 10.7877L11.627 13.16L11.3544 13.4327L10.7922 13.9951L10.7877 13.9994L10.7922 14.004L14 17.2123L17.2106 14.0017L17.2122 13.9999L17.2092 13.9983" fill="#F3BA2F"/>
</svg>
