<svg width="28" height="28" viewBox="0 0 28 28" fill="none" xmlns="http://www.w3.org/2000/svg">
<path d="M27.578 17.3867C25.7082 24.8867 18.1118 29.4511 10.6109 27.5809C3.11305 25.7111 -1.45134 18.1142 0.41928 10.6148C2.28826 3.11387 9.88462 -1.45087 17.3833 0.418928C24.8837 2.28873 29.4478 9.88639 27.5778 17.3868L27.5779 17.3867H27.578Z" fill="#F7931A"/>
<path d="M20.1718 12.0053C20.4505 10.1422 19.032 9.14075 17.0924 8.47266L17.7216 5.94894L16.1854 5.56614L15.5728 8.02341C15.169 7.92268 14.7542 7.82777 14.342 7.73368L14.959 5.26018L13.4236 4.87738L12.7941 7.40028C12.4599 7.32419 12.1316 7.24898 11.8131 7.16974L11.8149 7.1618L9.69636 6.63277L9.28769 8.2736C9.28769 8.2736 10.4275 8.53487 10.4035 8.55095C11.0256 8.70622 11.1381 9.11803 11.1194 9.44445L10.4026 12.3196C10.4455 12.3304 10.501 12.3462 10.5624 12.3708C10.5111 12.3581 10.4566 12.3442 10.4 12.3306L9.39533 16.3583C9.31931 16.5473 9.12633 16.8309 8.69139 16.7232C8.70678 16.7455 7.5748 16.4446 7.5748 16.4446L6.81207 18.2031L8.81128 18.7015C9.1832 18.7948 9.54766 18.8923 9.90658 18.9841L9.27086 21.5368L10.8053 21.9196L11.4349 19.394C11.8541 19.5078 12.2609 19.6128 12.6592 19.7117L12.0318 22.2254L13.5681 22.6082L14.2038 20.0603C16.8234 20.5561 18.7932 20.3562 19.6223 17.9867C20.2904 16.079 19.589 14.9786 18.2109 14.2611C19.2147 14.0296 19.9708 13.3694 20.1724 12.0055L20.1719 12.0052L20.1718 12.0053ZM16.6618 16.9273C16.187 18.835 12.975 17.8037 11.9336 17.5451L12.7772 14.1633C13.8186 14.4233 17.158 14.9377 16.6619 16.9273H16.6618ZM17.1369 11.9777C16.7038 13.7129 14.0304 12.8314 13.1632 12.6152L13.928 9.54805C14.7953 9.76422 17.5881 10.1677 17.137 11.9777H17.1369Z" fill="white"/>
</svg>
