<svg width="17" height="16" viewBox="0 0 17 16" fill="none" xmlns="http://www.w3.org/2000/svg">
<g clip-path="url(#clip0_4_160)">
<path fill-rule="evenodd" clip-rule="evenodd" d="M8.5625 11V6.5H6.5625V7.5H7.5625V11H6.0625V12H10.0625V11H8.5625ZM8.0625 3.5C7.64829 3.5 7.3125 3.83579 7.3125 4.25C7.3125 4.66421 7.64829 5 8.0625 5C8.47671 5 8.8125 4.66421 8.8125 4.25C8.8125 3.83579 8.47671 3.5 8.0625 3.5ZM8.0625 15C4.19651 15 1.0625 11.866 1.0625 8C1.0625 4.13401 4.19651 1 8.0625 1C11.9285 1 15.0625 4.13401 15.0625 8C15.0625 11.866 11.9285 15 8.0625 15ZM8.0625 2C4.74879 2 2.0625 4.68629 2.0625 8C2.0625 11.3137 4.74879 14 8.0625 14C11.3762 14 14.0625 11.3137 14.0625 8C14.0625 4.68629 11.3762 2 8.0625 2Z" fill="white"/>
</g>
<defs>
<clipPath id="clip0_4_160">
<rect width="16" height="16" fill="white" transform="translate(0.0625)"/>
</clipPath>
</defs>
</svg>
