<svg width="41" height="35" viewBox="0 0 41 35" fill="none" xmlns="http://www.w3.org/2000/svg">
<path fill-rule="evenodd" clip-rule="evenodd" d="M7.36633 0.1719L0.0301607 15.5815C0.0022444 15.6389 -0.00660208 15.7036 0.00491492 15.7663C0.0164319 15.829 0.0477082 15.8864 0.0941699 15.93L19.9074 34.9159C19.9637 34.9699 20.0387 35 20.1166 35C20.1946 35 20.2696 34.9699 20.3258 34.9159L40.1391 15.9312C40.1855 15.8876 40.2168 15.8302 40.2283 15.7675C40.2399 15.7048 40.231 15.64 40.2031 15.5827L32.8669 0.173085C32.8432 0.121333 32.8052 0.0774924 32.7572 0.0468028C32.7093 0.0161133 32.6536 -0.00012695 32.5967 2.29395e-05H7.63897C7.58178 -0.000688467 7.52562 0.0151606 7.47724 0.0456583C7.42887 0.076156 7.39035 0.119999 7.36633 0.1719Z" fill="#50AF95"/>
<path fill-rule="evenodd" clip-rule="evenodd" d="M22.6628 17.1639C22.5205 17.1746 21.7856 17.2184 20.1462 17.2184C18.8424 17.2184 17.9166 17.1793 17.5918 17.1639C12.5529 16.9422 8.79171 16.0651 8.79171 15.0149C8.79171 13.9646 12.5529 13.0887 17.5918 12.8634V16.2903C17.9213 16.314 18.8649 16.3697 20.1688 16.3697C21.7334 16.3697 22.517 16.3045 22.658 16.2915V12.8658C27.6863 13.0898 31.4391 13.967 31.4391 15.0149C31.4391 16.0627 27.6875 16.9399 22.658 17.1627L22.6628 17.1639ZM22.6628 12.5114V9.44486H29.6801V4.76863H10.5745V9.44486H17.5906V12.5102C11.8879 12.7722 7.59924 13.9018 7.59924 15.2555C7.59924 16.6092 11.8879 17.7376 17.5906 18.0008V27.8274H22.6616V17.9972C28.3513 17.7353 32.6328 16.6068 32.6328 15.2543C32.6328 13.9018 28.3548 12.7733 22.6616 12.5102L22.6628 12.5114Z" fill="white"/>
</svg>
